<svg xmlns="http://www.w3.org/2000/svg" viewBox="0 0 64 64" fill="none">
  <rect width="64" height="64" rx="12" fill="#fff7ed"/>
  <path fill="#c2410c" d="M10 46 L32 41 L32 52 L10 48 Z"/>
  <path fill="#ea580c" d="M32 41 L54 46 L54 48 L32 52 Z"/>
  <path fill="#fff7ed" stroke="#ea580c" stroke-width="1.2" d="M8 46 L32 39 L56 46 L56 50 L32 43 L8 50 Z"/>
  <path d="M18 42 L28 50 L46 26" stroke="#ea580c" stroke-width="4.5" stroke-linecap="round" stroke-linejoin="round" fill="none"/>
  <path fill="#ea580c" d="M22 22 L42 22 L44 30 L20 30 Z"/>
  <path fill="#c2410c" d="M20 30 L44 30 L45 33 L19 33 Z"/>
  <path fill="#c2410c" d="M30 33 L34 33 L34 44 L30 44 Z"/>
</svg>
